M48
;GenerationSoftware,Autodesk,EAGLE,9.6.0*%
;CreationDate,2020-10-12T22:04:19Z*%
FMAT,2
ICI,OFF
METRIC,TZ,000.000
T4C0.381
T3C0.800
T2C1.016
T1C3.302
%
G90
M71
T1
X6350Y19050
X19558Y19050
X32766Y19050
X45974Y19050
X59182Y19050
X72390Y19050
X85598Y19050
X98806Y19050
X112014Y19050
X125222Y19050
X138430Y19050
X151638Y19050
X164846Y19050
X178054Y19050
X6350Y41148
X19558Y41148
X32766Y41148
X45974Y41148
X59182Y41148
X72390Y41148
X85598Y41148
X98806Y41148
X112014Y41148
X125222Y41148
X138430Y41148
X151638Y41148
X164846Y41148
X178054Y41148
X6350Y63246
X19558Y63246
X32766Y63246
X45974Y63246
X59182Y63246
X72390Y63246
X85598Y63246
X98806Y63246
X112014Y63246
X125222Y63246
X138430Y63246
X151638Y63246
X164846Y63246
X178054Y63246
X6350Y85344
X19558Y85344
X32766Y85344
X45974Y85344
X59182Y85344
X72390Y85344
X85598Y85344
X98806Y85344
X112014Y85344
X125222Y85344
X138430Y85344
X151638Y85344
X164846Y85344
X178054Y85344
X6350Y107442
X19558Y107442
X32766Y107442
X45974Y107442
X59182Y107442
X72390Y107442
X85598Y107442
X98806Y107442
X112014Y107442
X125222Y107442
X138430Y107442
X151638Y107442
X164846Y107442
X178054Y107442
X6350Y129540
X19558Y129540
X32766Y129540
X45974Y129540
X59182Y129540
X72390Y129540
X85598Y129540
X98806Y129540
X112014Y129540
X125222Y129540
X138430Y129540
X151638Y129540
X164846Y129540
X178054Y129540
T2
X43434Y1270
X45974Y1270
X48514Y1270
X3810Y1270
X6350Y1270
X8890Y1270
X69850Y1270
X72390Y1270
X74930Y1270
X17018Y1270
X19558Y1270
X22098Y1270
X56642Y1270
X59182Y1270
X61722Y1270
X30226Y1270
X32766Y1270
X35306Y1270
X83058Y1270
X85598Y1270
X88138Y1270
X180594Y111760
X178054Y111760
X175514Y111760
X167386Y111760
X164846Y111760
X162306Y111760
X154178Y111760
X151638Y111760
X149098Y111760
X140970Y111760
X112014Y89662
X138430Y111760
X135890Y111760
X127762Y111760
X125222Y111760
X122682Y111760
X114554Y111760
X112014Y111760
X109474Y111760
X101346Y111760
X98806Y111760
X96266Y111760
X88138Y111760
X85598Y111760
X83058Y111760
X74930Y111760
X72390Y111760
X69850Y111760
X61722Y111760
X59182Y111760
X56642Y111760
X48514Y111760
X45974Y111760
X43434Y111760
X35306Y111760
X32766Y111760
X30226Y111760
X22098Y111760
X19558Y111760
X17018Y111760
X8890Y111760
X6350Y111760
X3810Y111760
X180594Y89662
X178054Y89662
X175514Y89662
X167386Y89662
X164846Y89662
X162306Y89662
X154178Y89662
X151638Y89662
X149098Y89662
X140970Y89662
X138430Y89662
X135890Y89662
X127762Y89662
X125222Y89662
X122682Y89662
X114554Y89662
X109474Y89662
X101346Y89662
X98806Y89662
X96266Y89662
X88138Y89662
X85598Y89662
X83058Y89662
X74930Y89662
X72390Y89662
X69850Y89662
X61722Y89662
X59182Y89662
X56642Y89662
X48514Y89662
X45974Y89662
X43434Y89662
X35306Y89662
X32766Y89662
X30226Y89662
X22098Y89662
X19558Y89662
X17018Y89662
X8890Y89662
X6350Y89662
X3810Y89662
X180594Y67564
X178054Y67564
X175514Y67564
X167386Y67564
X164846Y67564
X162306Y67564
X154178Y67564
X151638Y67564
X149098Y67564
X140970Y67564
X138430Y67564
X135890Y67564
X127762Y67564
X125222Y67564
X122682Y67564
X114554Y67564
X112014Y67564
X109474Y67564
X101346Y67564
X98806Y67564
X96266Y67564
X88138Y67564
X85598Y67564
X83058Y67564
X74930Y67564
X72390Y67564
X69850Y67564
X61722Y67564
X59182Y67564
X56642Y67564
X48514Y67564
X45974Y67564
X43434Y67564
X35306Y67564
X32766Y67564
X30226Y67564
X22098Y67564
X19558Y67564
X17018Y67564
X8890Y67564
X6350Y67564
X3810Y67564
X180594Y45466
X178054Y45466
X175514Y45466
X167386Y45466
X164846Y45466
X162306Y45466
X154178Y45466
X151638Y45466
X149098Y45466
X140970Y45466
X138430Y45466
X135890Y45466
X127762Y45466
X125222Y45466
X122682Y45466
X114554Y45466
X112014Y45466
X109474Y45466
X101346Y45466
X98806Y45466
X96266Y45466
X88138Y45466
X85598Y45466
X83058Y45466
X74930Y45466
X72390Y45466
X69850Y45466
X61722Y45466
X59182Y45466
X56642Y45466
X48514Y45466
X45974Y45466
X43434Y45466
X35306Y45466
X32766Y45466
X30226Y45466
X22098Y45466
X19558Y45466
X17018Y45466
X8890Y45466
X6350Y45466
X3810Y45466
X180594Y23368
X178054Y23368
X175514Y23368
X167386Y23368
X164846Y23368
X162306Y23368
X154178Y23368
X151638Y23368
X149098Y23368
X140970Y23368
X138430Y23368
X135890Y23368
X127762Y23368
X125222Y23368
X122682Y23368
X114554Y23368
X112014Y23368
X109474Y23368
X101346Y23368
X98806Y23368
X96266Y23368
X88138Y23368
X85598Y23368
X83058Y23368
X74930Y23368
X72390Y23368
X69850Y23368
X61722Y23368
X59182Y23368
X56642Y23368
X48514Y23368
X45974Y23368
X43434Y23368
X35306Y23368
X32766Y23368
X30226Y23368
X22098Y23368
X19558Y23368
X17018Y23368
X8890Y23368
X6350Y23368
X3810Y23368
X180594Y1270
X178054Y1270
X175514Y1270
X167386Y1270
X164846Y1270
X162306Y1270
X154178Y1270
X151638Y1270
X149098Y1270
X140970Y1270
X138430Y1270
X135890Y1270
X127762Y1270
X125222Y1270
X122682Y1270
X114554Y1270
X112014Y1270
X109474Y1270
X101346Y1270
X98806Y1270
X96266Y1270
T3
X100602Y74658
X100602Y78250
X97010Y78250
X113810Y74658
X113810Y78250
X110218Y78250
X127018Y74658
X127018Y78250
X123426Y78250
X140226Y74658
X140226Y78250
X136634Y78250
X153434Y74658
X153434Y78250
X149842Y78250
X166642Y74658
X166642Y78250
X163050Y78250
X179850Y74658
X179850Y78250
X176258Y78250
X8146Y96756
X8146Y100348
X4554Y100348
X21354Y96756
X21354Y100348
X17762Y100348
X34562Y96756
X34562Y100348
X30970Y100348
X47770Y96756
X47770Y100348
X44178Y100348
X60978Y96756
X60978Y100348
X57386Y100348
X74186Y96756
X74186Y100348
X70594Y100348
X87394Y96756
X87394Y100348
X83802Y100348
X100602Y96756
X100602Y100348
X97010Y100348
X113810Y96756
X113810Y100348
X110218Y100348
X127018Y96756
X127018Y100348
X123426Y100348
X140226Y96756
X140226Y100348
X136634Y100348
X153434Y96756
X153434Y100348
X149842Y100348
X166642Y96756
X166642Y100348
X163050Y100348
X179850Y96756
X179850Y100348
X176258Y100348
X8146Y118854
X8146Y122446
X4554Y122446
X21354Y118854
X21354Y122446
X17762Y122446
X34562Y118854
X34562Y122446
X30970Y122446
X47770Y118854
X47770Y122446
X44178Y122446
X60978Y118854
X60978Y122446
X57386Y122446
X74186Y118854
X74186Y122446
X70594Y122446
X87394Y118854
X87394Y122446
X83802Y122446
X100602Y118854
X100602Y122446
X97010Y122446
X113810Y118854
X113810Y122446
X110218Y122446
X127018Y118854
X127018Y122446
X123426Y122446
X140226Y118854
X140226Y122446
X136634Y122446
X153434Y118854
X153434Y122446
X149842Y122446
X166642Y118854
X166642Y122446
X163050Y122446
X179850Y118854
X179850Y122446
X176258Y122446
X8146Y8364
X8146Y11956
X4554Y11956
X21354Y8364
X21354Y11956
X17762Y11956
X34562Y8364
X34562Y11956
X30970Y11956
X47770Y8364
X47770Y11956
X44178Y11956
X60978Y8364
X60978Y11956
X57386Y11956
X74186Y8364
X74186Y11956
X70594Y11956
X87394Y8364
X87394Y11956
X83802Y11956
X100602Y8364
X100602Y11956
X97010Y11956
X113810Y8364
X113810Y11956
X110218Y11956
X127018Y8364
X127018Y11956
X123426Y11956
X140226Y8364
X140226Y11956
X136634Y11956
X153434Y8364
X153434Y11956
X149842Y11956
X166642Y8364
X166642Y11956
X163050Y11956
X179850Y8364
X179850Y11956
X176258Y11956
X8146Y30462
X8146Y34054
X4554Y34054
X21354Y30462
X21354Y34054
X17762Y34054
X34562Y30462
X34562Y34054
X30970Y34054
X47770Y30462
X47770Y34054
X44178Y34054
X60978Y30462
X60978Y34054
X57386Y34054
X74186Y30462
X74186Y34054
X70594Y34054
X87394Y30462
X87394Y34054
X83802Y34054
X100602Y30462
X100602Y34054
X97010Y34054
X113810Y30462
X113810Y34054
X110218Y34054
X127018Y30462
X127018Y34054
X123426Y34054
X140226Y30462
X140226Y34054
X136634Y34054
X153434Y30462
X153434Y34054
X149842Y34054
X166642Y30462
X166642Y34054
X163050Y34054
X179850Y30462
X179850Y34054
X176258Y34054
X8146Y52560
X8146Y56152
X4554Y56152
X21354Y52560
X21354Y56152
X17762Y56152
X34562Y52560
X34562Y56152
X30970Y56152
X47770Y52560
X47770Y56152
X44178Y56152
X60978Y52560
X60978Y56152
X57386Y56152
X74186Y52560
X74186Y56152
X70594Y56152
X87394Y52560
X87394Y56152
X83802Y56152
X100602Y52560
X100602Y56152
X97010Y56152
X113810Y52560
X113810Y56152
X110218Y56152
X127018Y52560
X127018Y56152
X123426Y56152
X140226Y52560
X140226Y56152
X136634Y56152
X153434Y52560
X153434Y56152
X149842Y56152
X166642Y52560
X166642Y56152
X163050Y56152
X179850Y52560
X179850Y56152
X176258Y56152
X8146Y74658
X8146Y78250
X4554Y78250
X21354Y74658
X21354Y78250
X17762Y78250
X34562Y74658
X34562Y78250
X30970Y78250
X47770Y74658
X47770Y78250
X44178Y78250
X60978Y74658
X60978Y78250
X57386Y78250
X74186Y74658
X74186Y78250
X70594Y78250
X87394Y74658
X87394Y78250
X83802Y78250
T4
X11557Y1778
X5144Y4509
X762Y2159
X3810Y6350
X24765Y1778
X18352Y4509
X13970Y2159
X17018Y6350
X37973Y1778
X31559Y4509
X27178Y2159
X30226Y6350
X51181Y1778
X44767Y4509
X40386Y2159
X43434Y6350
X64389Y1778
X57975Y4509
X53594Y2159
X56642Y6350
X77597Y1778
X71184Y4509
X66802Y2159
X69850Y6350
X90805Y1778
X84392Y4509
X80010Y2159
X83058Y6350
X104013Y1778
X97599Y4509
X93218Y2159
X96266Y6350
X117221Y1778
X110807Y4509
X106426Y2159
X109474Y6350
X130429Y1778
X124015Y4509
X119634Y2159
X122682Y6350
X143637Y1778
X137224Y4509
X132842Y2159
X135890Y6350
X156845Y1778
X150432Y4509
X146050Y2159
X149098Y6350
X170053Y1778
X163640Y4509
X159258Y2159
X162306Y6350
X183261Y1778
X176847Y4509
X172466Y2159
X175514Y6350
X11557Y23876
X5144Y26606
X762Y24257
X3810Y28448
X24765Y23876
X18352Y26606
X13970Y24257
X17018Y28448
X37973Y23876
X31559Y26606
X27178Y24257
X30226Y28448
X51181Y23876
X44767Y26606
X40386Y24257
X43434Y28448
X64389Y23876
X57975Y26606
X53594Y24257
X56642Y28448
X77597Y23876
X71184Y26606
X66802Y24257
X69850Y28448
X90805Y23876
X84392Y26606
X80010Y24257
X83058Y28448
X104013Y23876
X97599Y26606
X93218Y24257
X96266Y28448
X117221Y23876
X110807Y26606
X106426Y24257
X109474Y28448
X130429Y23876
X124015Y26606
X119634Y24257
X122682Y28448
X143637Y23876
X137224Y26606
X132842Y24257
X135890Y28448
X156845Y23876
X150432Y26606
X146050Y24257
X149098Y28448
X170053Y23876
X176847Y70803
X183261Y68072
X162306Y72644
X172466Y90551
X176847Y92900
X183261Y90170
X159258Y68453
X163640Y70803
X170053Y68072
X163640Y114998
X170053Y112268
X149098Y116840
X149098Y72644
X146050Y68453
X150432Y70803
X162306Y94742
X159258Y90551
X163640Y92900
X156845Y68072
X135890Y72644
X132842Y68453
X84392Y114998
X90805Y112268
X69850Y116840
X137224Y70803
X143637Y68072
X122682Y72644
X170053Y90170
X149098Y94742
X146050Y90551
X119634Y68453
X124015Y70803
X130429Y68072
X143637Y112268
X122682Y116840
X119634Y112649
X109474Y72644
X106426Y68453
X110807Y70803
X150432Y92900
X156845Y90170
X135890Y94742
X117221Y68072
X96266Y72644
X93218Y68453
X66802Y112649
X71184Y114998
X77597Y112268
X97599Y70803
X104013Y68072
X83058Y72644
X132842Y90551
X137224Y92900
X143637Y90170
X80010Y68453
X84392Y70803
X90805Y68072
X183261Y112268
X162306Y116840
X159258Y112649
X69850Y72644
X66802Y68453
X71184Y70803
X122682Y94742
X119634Y90551
X124015Y92900
X77597Y68072
X56642Y72644
X53594Y68453
X56642Y116840
X53594Y112649
X57975Y114998
X57975Y70803
X64389Y68072
X43434Y72644
X130429Y90170
X109474Y94742
X106426Y90551
X40386Y68453
X44767Y70803
X51181Y68072
X124015Y114998
X130429Y112268
X109474Y116840
X30226Y72644
X27178Y68453
X31559Y70803
X110807Y92900
X117221Y90170
X96266Y94742
X37973Y68072
X17018Y72644
X13970Y68453
X64389Y112268
X43434Y116840
X40386Y112649
X18352Y70803
X24765Y68072
X3810Y72644
X93218Y90551
X97599Y92900
X104013Y90170
X762Y68453
X5144Y70803
X11557Y68072
X146050Y112649
X150432Y114998
X156845Y112268
X175514Y50546
X172466Y46355
X176847Y48704
X83058Y94742
X80010Y90551
X84392Y92900
X183261Y45974
X3810Y50546
X162306Y50546
X44767Y114998
X51181Y112268
X30226Y116840
X159258Y46355
X163640Y48704
X170053Y45974
X90805Y90170
X69850Y94742
X66802Y90551
X149098Y50546
X146050Y46355
X150432Y48704
X106426Y112649
X110807Y114998
X117221Y112268
X156845Y45974
X135890Y50546
X132842Y46355
X71184Y92900
X77597Y90170
X56642Y94742
X137224Y48704
X143637Y45974
X122682Y50546
X27178Y112649
X31559Y114998
X37973Y112268
X119634Y46355
X124015Y48704
X130429Y45974
X53594Y90551
X57975Y92900
X64389Y90170
X109474Y50546
X106426Y46355
X110807Y48704
X175514Y116840
X172466Y112649
X176847Y114998
X117221Y45974
X96266Y50546
X93218Y46355
X43434Y94742
X40386Y90551
X44767Y92900
X97599Y48704
X104013Y45974
X83058Y50546
X17018Y116840
X13970Y112649
X18352Y114998
X80010Y46355
X84392Y48704
X90805Y45974
X51181Y90170
X30226Y94742
X27178Y90551
X69850Y50546
X66802Y46355
X71184Y48704
X96266Y116840
X93218Y112649
X97599Y114998
X77597Y45974
X56642Y50546
X53594Y46355
X31559Y92900
X37973Y90170
X17018Y94742
X57975Y48704
X64389Y45974
X43434Y50546
X24765Y112268
X3810Y116840
X762Y112649
X40386Y46355
X44767Y48704
X51181Y45974
X13970Y90551
X18352Y92900
X24765Y90170
X30226Y50546
X27178Y46355
X31559Y48704
X135890Y116840
X132842Y112649
X137224Y114998
X37973Y45974
X17018Y50546
X13970Y46355
X3810Y94742
X762Y90551
X5144Y92900
X18352Y48704
X24765Y45974
X762Y46355
X5144Y114998
X11557Y112268
X175514Y94742
X5144Y48704
X11557Y45974
X175514Y28448
X11557Y90170
X175514Y72644
X172466Y68453
X172466Y24257
X176847Y26606
X183261Y23876
X104013Y112268
X83058Y116840
X80010Y112649
X162306Y28448
X159258Y24257
X163640Y26606
M30