G04 EAGLE Gerber RS-274X export*
G75*
%MOMM*%
%FSLAX34Y34*%
%LPD*%
%INSolderpaste Top*%
%IPPOS*%
%AMOC8*
5,1,8,0,0,1.08239X$1,22.5*%
G01*
%ADD10R,1.079500X1.079500*%
%ADD11R,1.100000X1.000000*%


D10*
X13018Y158433D03*
X145098Y158433D03*
X277178Y158433D03*
X409258Y158433D03*
X541338Y158433D03*
X673418Y158433D03*
X805498Y158433D03*
X937578Y158433D03*
X1069658Y158433D03*
X1201738Y158433D03*
X1333818Y158433D03*
X1465898Y158433D03*
X13018Y379413D03*
X145098Y379413D03*
X277178Y379413D03*
X409258Y379413D03*
X541338Y379413D03*
X673418Y379413D03*
X805498Y379413D03*
X937578Y379413D03*
X1069658Y379413D03*
X1201738Y379413D03*
X1333818Y379413D03*
X1465898Y379413D03*
X13018Y600393D03*
X145098Y600393D03*
X277178Y600393D03*
X409258Y600393D03*
X541338Y600393D03*
X673418Y600393D03*
X805498Y600393D03*
X937578Y600393D03*
X1069658Y600393D03*
X1201738Y600393D03*
X1333818Y600393D03*
X1465898Y600393D03*
X13018Y821373D03*
X145098Y821373D03*
X277178Y821373D03*
X409258Y821373D03*
X541338Y821373D03*
X673418Y821373D03*
X805498Y821373D03*
X937578Y821373D03*
X1069658Y821373D03*
X1201738Y821373D03*
X1333818Y821373D03*
X1465898Y821373D03*
X13018Y1042353D03*
X145098Y1042353D03*
X277178Y1042353D03*
X409258Y1042353D03*
X541338Y1042353D03*
X673418Y1042353D03*
X805498Y1042353D03*
X937578Y1042353D03*
X1069658Y1042353D03*
X1201738Y1042353D03*
X1333818Y1042353D03*
X1465898Y1042353D03*
D11*
X16900Y33020D03*
X33900Y33020D03*
X110100Y33020D03*
X93100Y33020D03*
X72000Y33020D03*
X55000Y33020D03*
X148980Y33020D03*
X165980Y33020D03*
X242180Y33020D03*
X225180Y33020D03*
X204080Y33020D03*
X187080Y33020D03*
X281060Y33020D03*
X298060Y33020D03*
X374260Y33020D03*
X357260Y33020D03*
X336160Y33020D03*
X319160Y33020D03*
X413140Y33020D03*
X430140Y33020D03*
X506340Y33020D03*
X489340Y33020D03*
X468240Y33020D03*
X451240Y33020D03*
X545220Y33020D03*
X562220Y33020D03*
X638420Y33020D03*
X621420Y33020D03*
X600320Y33020D03*
X583320Y33020D03*
X677300Y33020D03*
X694300Y33020D03*
X770500Y33020D03*
X753500Y33020D03*
X732400Y33020D03*
X715400Y33020D03*
X809380Y33020D03*
X826380Y33020D03*
X902580Y33020D03*
X885580Y33020D03*
X864480Y33020D03*
X847480Y33020D03*
X941460Y33020D03*
X958460Y33020D03*
X1034660Y33020D03*
X1017660Y33020D03*
X996560Y33020D03*
X979560Y33020D03*
X1073540Y33020D03*
X1090540Y33020D03*
X1166740Y33020D03*
X1149740Y33020D03*
X1128640Y33020D03*
X1111640Y33020D03*
X1205620Y33020D03*
X1222620Y33020D03*
X1298820Y33020D03*
X1281820Y33020D03*
X1260720Y33020D03*
X1243720Y33020D03*
X1337700Y33020D03*
X1354700Y33020D03*
X1430900Y33020D03*
X1413900Y33020D03*
X1392800Y33020D03*
X1375800Y33020D03*
X1469780Y33020D03*
X1486780Y33020D03*
X1562980Y33020D03*
X1545980Y33020D03*
X1524880Y33020D03*
X1507880Y33020D03*
X16900Y254000D03*
X33900Y254000D03*
X110100Y254000D03*
X93100Y254000D03*
X72000Y254000D03*
X55000Y254000D03*
X148980Y254000D03*
X165980Y254000D03*
X242180Y254000D03*
X225180Y254000D03*
X204080Y254000D03*
X187080Y254000D03*
X281060Y254000D03*
X298060Y254000D03*
X374260Y254000D03*
X357260Y254000D03*
X336160Y254000D03*
X319160Y254000D03*
X413140Y254000D03*
X430140Y254000D03*
X506340Y254000D03*
X489340Y254000D03*
X468240Y254000D03*
X451240Y254000D03*
X545220Y254000D03*
X562220Y254000D03*
X638420Y254000D03*
X621420Y254000D03*
X600320Y254000D03*
X583320Y254000D03*
X677300Y254000D03*
X694300Y254000D03*
X770500Y254000D03*
X753500Y254000D03*
X732400Y254000D03*
X715400Y254000D03*
X809380Y254000D03*
X826380Y254000D03*
X902580Y254000D03*
X885580Y254000D03*
X864480Y254000D03*
X847480Y254000D03*
X941460Y254000D03*
X958460Y254000D03*
X1034660Y254000D03*
X1017660Y254000D03*
X996560Y254000D03*
X979560Y254000D03*
X1073540Y254000D03*
X1090540Y254000D03*
X1166740Y254000D03*
X1149740Y254000D03*
X1128640Y254000D03*
X1111640Y254000D03*
X1205620Y254000D03*
X1222620Y254000D03*
X1298820Y254000D03*
X1281820Y254000D03*
X1260720Y254000D03*
X1243720Y254000D03*
X1337700Y254000D03*
X1354700Y254000D03*
X1430900Y254000D03*
X1413900Y254000D03*
X1392800Y254000D03*
X1375800Y254000D03*
X1469780Y254000D03*
X1486780Y254000D03*
X1562980Y254000D03*
X1545980Y254000D03*
X1524880Y254000D03*
X1507880Y254000D03*
X16900Y474980D03*
X33900Y474980D03*
X110100Y474980D03*
X93100Y474980D03*
X72000Y474980D03*
X55000Y474980D03*
X148980Y474980D03*
X165980Y474980D03*
X242180Y474980D03*
X225180Y474980D03*
X204080Y474980D03*
X187080Y474980D03*
X281060Y474980D03*
X298060Y474980D03*
X374260Y474980D03*
X357260Y474980D03*
X336160Y474980D03*
X319160Y474980D03*
X413140Y474980D03*
X430140Y474980D03*
X506340Y474980D03*
X489340Y474980D03*
X468240Y474980D03*
X451240Y474980D03*
X545220Y474980D03*
X562220Y474980D03*
X638420Y474980D03*
X621420Y474980D03*
X600320Y474980D03*
X583320Y474980D03*
X677300Y474980D03*
X694300Y474980D03*
X770500Y474980D03*
X753500Y474980D03*
X732400Y474980D03*
X715400Y474980D03*
X809380Y474980D03*
X826380Y474980D03*
X902580Y474980D03*
X885580Y474980D03*
X864480Y474980D03*
X847480Y474980D03*
X941460Y474980D03*
X958460Y474980D03*
X1034660Y474980D03*
X1017660Y474980D03*
X996560Y474980D03*
X979560Y474980D03*
X1073540Y474980D03*
X1090540Y474980D03*
X1166740Y474980D03*
X1149740Y474980D03*
X1128640Y474980D03*
X1111640Y474980D03*
X1205620Y474980D03*
X1222620Y474980D03*
X1298820Y474980D03*
X1281820Y474980D03*
X1260720Y474980D03*
X1243720Y474980D03*
X1337700Y474980D03*
X1354700Y474980D03*
X1430900Y474980D03*
X1413900Y474980D03*
X1392800Y474980D03*
X1375800Y474980D03*
X1469780Y474980D03*
X1486780Y474980D03*
X1562980Y474980D03*
X1545980Y474980D03*
X1524880Y474980D03*
X1507880Y474980D03*
X16900Y695960D03*
X33900Y695960D03*
X110100Y695960D03*
X93100Y695960D03*
X72000Y695960D03*
X55000Y695960D03*
X148980Y695960D03*
X165980Y695960D03*
X242180Y695960D03*
X225180Y695960D03*
X204080Y695960D03*
X187080Y695960D03*
X281060Y695960D03*
X298060Y695960D03*
X374260Y695960D03*
X357260Y695960D03*
X336160Y695960D03*
X319160Y695960D03*
X413140Y695960D03*
X430140Y695960D03*
X506340Y695960D03*
X489340Y695960D03*
X468240Y695960D03*
X451240Y695960D03*
X545220Y695960D03*
X562220Y695960D03*
X638420Y695960D03*
X621420Y695960D03*
X600320Y695960D03*
X583320Y695960D03*
X677300Y695960D03*
X694300Y695960D03*
X770500Y695960D03*
X753500Y695960D03*
X732400Y695960D03*
X715400Y695960D03*
X809380Y695960D03*
X826380Y695960D03*
X902580Y695960D03*
X885580Y695960D03*
X864480Y695960D03*
X847480Y695960D03*
X941460Y695960D03*
X958460Y695960D03*
X1034660Y695960D03*
X1017660Y695960D03*
X996560Y695960D03*
X979560Y695960D03*
X1073540Y695960D03*
X1090540Y695960D03*
X1166740Y695960D03*
X1149740Y695960D03*
X1128640Y695960D03*
X1111640Y695960D03*
X1205620Y695960D03*
X1222620Y695960D03*
X1298820Y695960D03*
X1281820Y695960D03*
X1260720Y695960D03*
X1243720Y695960D03*
X1337700Y695960D03*
X1354700Y695960D03*
X1430900Y695960D03*
X1413900Y695960D03*
X1392800Y695960D03*
X1375800Y695960D03*
X1469780Y695960D03*
X1486780Y695960D03*
X1562980Y695960D03*
X1545980Y695960D03*
X1524880Y695960D03*
X1507880Y695960D03*
X16900Y916940D03*
X33900Y916940D03*
X110100Y916940D03*
X93100Y916940D03*
X72000Y916940D03*
X55000Y916940D03*
X148980Y916940D03*
X165980Y916940D03*
X242180Y916940D03*
X225180Y916940D03*
X204080Y916940D03*
X187080Y916940D03*
X281060Y916940D03*
X298060Y916940D03*
X374260Y916940D03*
X357260Y916940D03*
X336160Y916940D03*
X319160Y916940D03*
X413140Y916940D03*
X430140Y916940D03*
X506340Y916940D03*
X489340Y916940D03*
X468240Y916940D03*
X451240Y916940D03*
X545220Y916940D03*
X562220Y916940D03*
X638420Y916940D03*
X621420Y916940D03*
X600320Y916940D03*
X583320Y916940D03*
X677300Y916940D03*
X694300Y916940D03*
X770500Y916940D03*
X753500Y916940D03*
X732400Y916940D03*
X715400Y916940D03*
X809380Y916940D03*
X826380Y916940D03*
X902580Y916940D03*
X885580Y916940D03*
X864480Y916940D03*
X847480Y916940D03*
X941460Y916940D03*
X958460Y916940D03*
X1034660Y916940D03*
X1017660Y916940D03*
X996560Y916940D03*
X979560Y916940D03*
X1073540Y916940D03*
X1090540Y916940D03*
X1166740Y916940D03*
X1149740Y916940D03*
X1128640Y916940D03*
X1111640Y916940D03*
X1205620Y916940D03*
X1222620Y916940D03*
X1298820Y916940D03*
X1281820Y916940D03*
X1260720Y916940D03*
X1243720Y916940D03*
X1337700Y916940D03*
X1354700Y916940D03*
X1430900Y916940D03*
X1413900Y916940D03*
X1392800Y916940D03*
X1375800Y916940D03*
X1469780Y916940D03*
X1486780Y916940D03*
X1562980Y916940D03*
X1545980Y916940D03*
X1524880Y916940D03*
X1507880Y916940D03*
M02*
